<svg xmlns="http://www.w3.org/2000/svg" xmlns:xlink="http://www.w3.org/1999/xlink" viewBox="0 0 24 24"><defs><symbol id="a" viewBox="0 0 96 112.5"><path d="M60,22.5H96S77.62,14.62,60,11.63V8.5H52V4.15A4.11,4.11,0,0,0,48.83.08,4,4,0,0,0,44,4V8.5H36v3.13C18.38,14.62,0,22.5,0,22.5H36v4h8v81.85a4.11,4.11,0,0,0,3.17,4.07A4,4,0,0,0,52,108.5v-82h8Z"/></symbol><symbol id="b" viewBox="0 0 32 32"><path d="M28,12H20V4a4,4,0,0,0-4-4h0a4,4,0,0,0-4,4v8H4a4,4,0,0,0-4,4H0a4,4,0,0,0,4,4h8v8a4,4,0,0,0,4,4h0a4,4,0,0,0,4-4V20h8a4,4,0,0,0,4-4h0A4,4,0,0,0,28,12Z"/></symbol></defs><title>Icons</title><use width="96" height="112.5" transform="translate(11.31 -3.86) rotate(45) scale(0.24 0.24)" xlink:href="#a"/><use width="32" height="32" transform="translate(0 2) scale(0.34)" xlink:href="#b"/></svg>