<svg id="Layer_3" enable-background="new 0 0 64 64" height="512" viewBox="0 0 64 64" width="512" xmlns="http://www.w3.org/2000/svg"><path d="m63 22h-9.192c-1.589-3.458-3.985-6.494-6.985-8.856.212-.704.236-1.452.041-2.179-.277-1.032-.938-1.895-1.864-2.429-.925-.533-2.002-.674-3.035-.399-.788.211-1.474.649-1.993 1.255-4.172-1.47-8.686-1.765-12.972-.862v-7.53h-26v20h9.678c-1.15 2.222-1.936 4.589-2.344 7.067-1.888.319-3.334 1.955-3.334 3.933 0 1.981 1.451 3.618 3.344 3.934.409 2.476 1.195 4.856 2.337 7.066h-9.681v20h26v-7.53c1.638.347 3.313.53 5 .53 2.734 0 5.408-.482 7.973-1.389.519.605 1.205 1.042 1.992 1.253.345.092.694.138 1.042.138.692 0 1.377-.182 1.993-.538.926-.534 1.587-1.396 1.863-2.429.196-.73.172-1.481-.043-2.187 3.003-2.366 5.411-5.406 6.996-8.848h9.184zm-21.731-11c.267-.463.698-.793 1.214-.932.517-.137 1.054-.068 1.517.2s.794.699.932 1.215c.139.516.067 1.055-.2 1.518s-.698.793-1.214.932c-.521.14-1.056.066-1.518-.199-.463-.268-.794-.699-.932-1.215-.138-.518-.067-1.056.201-1.519zm-16.269-1.952c-.797.242-1.584.518-2.354.844l.781 1.842c.515-.218 1.043-.399 1.572-.576v7.842h-6v-16h6v6.048zm-22-6.048h14v16h-14zm4 29c0-1.103.897-2 2-2s2 .897 2 2-.897 2-2 2-2-.897-2-2zm-4 13h8.836c.592.916 1.242 1.799 1.961 2.635l1.518-1.304c-.37-.431-.72-.877-1.054-1.332h2.739v16h-14zm22 16h-6v-16h6zm19.932-8.482c-.138.516-.469.947-.932 1.214-.461.267-.997.339-1.518.2-.516-.138-.947-.469-1.214-.932-.268-.462-.339-1.001-.2-1.517.138-.516.469-.947.932-1.215.462-.266.998-.339 1.518-.199.516.138.947.469 1.214.932.267.462.338 1 .2 1.517zm.833-3.385c-.482-.466-1.064-.818-1.73-.997-1.03-.275-2.109-.134-3.035.399-.926.534-1.587 1.396-1.863 2.429-.164.612-.164 1.237-.039 1.839-3.89 1.327-8.118 1.532-12.098.609v-10.412h-14.035c-1.295-2.237-2.184-4.683-2.625-7.248 1.546-.554 2.66-2.019 2.66-3.752 0-1.737-1.119-3.203-2.669-3.755.439-2.561 1.322-4.991 2.627-7.245h14.042v-10.406c3.979-.92 8.193-.719 12.096.61-.123.6-.123 1.222.041 1.831.276 1.032.938 1.895 1.863 2.429.616.355 1.3.537 1.993.537.348 0 .697-.045 1.042-.138.668-.179 1.253-.534 1.736-1.003 2.425 1.951 4.415 4.381 5.826 7.139h-14.597v20h14.574c-1.408 2.744-3.386 5.182-5.809 7.134zm-6.765-9.133v-16h6v16zm22 0h-6.376c.204-.574.392-1.154.551-1.744l-1.932-.521c-.208.772-.473 1.523-.764 2.264h-5.479v-15.999h14z"/><path d="m7 53h-2v6h6v-2h-4z"/><path d="m5 49h2v2h-2z"/><path d="m5 5h2v2h-2z"/><path d="m9 5h2v2h-2z"/><path d="m13 5h2v2h-2z"/><path d="m58 36h2v2h-2z"/><path d="m58 26h2v8h-2z"/></svg>